<svg width="253" height="229" viewBox="0 0 253 229" fill="none" xmlns="http://www.w3.org/2000/svg">
<g filter="url(#filter0_d_514_4981)">
<rect x="38" y="55" width="170" height="128" rx="6" fill="white"/>
</g>
<path d="M59.4399 89.8217H62.4279V82.7477H59.4219V81.1457C60.0939 81.0977 60.8559 80.9297 61.7079 80.6417C62.5599 80.3417 63.3639 79.9817 64.1199 79.5617H65.0739V89.8217H68.0079V91.9997H59.4399V89.8217Z" fill="#060C3C"/>
<path d="M70.0654 91.4597C70.0654 90.6677 70.1974 90.0437 70.4614 89.5877C70.7374 89.1197 71.1214 88.6937 71.6134 88.3097L75.1234 85.5557C75.5794 85.2077 75.8914 84.8537 76.0594 84.4937C76.2394 84.1217 76.3294 83.7377 76.3294 83.3417C76.3294 82.8977 76.1854 82.5137 75.8974 82.1897C75.6094 81.8537 75.1774 81.6857 74.6014 81.6857C74.1334 81.6857 73.7434 81.7937 73.4314 82.0097C73.1314 82.2137 72.9094 82.4597 72.7654 82.7477C72.6214 83.0357 72.5494 83.2877 72.5494 83.5037C72.5494 83.7197 72.5554 83.8817 72.5674 83.9897H70.1014C70.0894 83.8937 70.0834 83.7797 70.0834 83.6477C70.0834 82.9997 70.2274 82.3637 70.5154 81.7397C70.8034 81.1037 71.2954 80.5697 71.9914 80.1377C72.6874 79.6937 73.5994 79.4717 74.7274 79.4717H74.9974C75.8614 79.4717 76.5994 79.6517 77.2114 80.0117C77.8354 80.3717 78.3034 80.8457 78.6154 81.4337C78.9274 82.0097 79.0834 82.6277 79.0834 83.2877C79.0834 83.9957 78.9454 84.6257 78.6694 85.1777C78.4054 85.7177 77.9434 86.2637 77.2834 86.8157C76.5274 87.4517 75.6154 88.1717 74.5474 88.9757C74.4274 89.0717 74.2774 89.2037 74.0974 89.3717C73.9174 89.5397 73.8274 89.6477 73.8274 89.6957H79.1194V91.9997H70.0654V91.4597Z" fill="#060C3C"/>
<path d="M81.7708 94.5917C81.8908 94.0157 82.0828 93.1517 82.3468 91.9997H81.2128V89.3537H83.8408V91.5677L83.0848 94.5917H81.7708Z" fill="#060C3C"/>
<path d="M90.561 81.6317C90.033 81.6317 89.577 81.8117 89.193 82.1717C88.809 82.5317 88.617 82.9757 88.617 83.5037V85.2497C88.941 84.9017 89.325 84.6377 89.769 84.4577C90.213 84.2777 90.669 84.1877 91.137 84.1877C91.881 84.1877 92.553 84.3437 93.153 84.6557C93.765 84.9557 94.245 85.3937 94.593 85.9697C94.953 86.5337 95.133 87.1937 95.133 87.9497C95.133 88.8017 94.935 89.5457 94.539 90.1817C94.155 90.8177 93.621 91.3097 92.937 91.6577C92.265 92.0057 91.515 92.1797 90.687 92.1797H90.435C89.619 92.1797 88.869 91.9997 88.185 91.6397C87.501 91.2677 86.961 90.7517 86.565 90.0917C86.169 89.4317 85.971 88.6817 85.971 87.8417V83.8097C85.971 83.0057 86.169 82.2737 86.565 81.6137C86.961 80.9537 87.495 80.4317 88.167 80.0477C88.839 79.6637 89.577 79.4717 90.381 79.4717H90.633C91.425 79.4717 92.145 79.6337 92.793 79.9577C93.441 80.2817 93.951 80.7557 94.323 81.3797C94.695 81.9917 94.881 82.7177 94.881 83.5577H92.397C92.397 83.0297 92.223 82.5797 91.875 82.2077C91.539 81.8237 91.101 81.6317 90.561 81.6317ZM92.523 87.8957C92.523 87.3557 92.331 86.9117 91.947 86.5637C91.575 86.2037 91.107 86.0237 90.543 86.0237C90.003 86.0237 89.547 86.2037 89.175 86.5637C88.803 86.9117 88.617 87.3557 88.617 87.8957V88.2557C88.617 88.7957 88.803 89.2457 89.175 89.6057C89.559 89.9537 90.033 90.1277 90.597 90.1277C91.137 90.1277 91.593 89.9537 91.965 89.6057C92.337 89.2457 92.523 88.7957 92.523 88.2557V87.8957Z" fill="#060C3C"/>
<path d="M97.1005 91.4597C97.1005 90.6677 97.2325 90.0437 97.4965 89.5877C97.7725 89.1197 98.1565 88.6937 98.6485 88.3097L102.159 85.5557C102.615 85.2077 102.927 84.8537 103.095 84.4937C103.275 84.1217 103.365 83.7377 103.365 83.3417C103.365 82.8977 103.221 82.5137 102.933 82.1897C102.645 81.8537 102.213 81.6857 101.637 81.6857C101.169 81.6857 100.779 81.7937 100.467 82.0097C100.167 82.2137 99.9445 82.4597 99.8005 82.7477C99.6565 83.0357 99.5845 83.2877 99.5845 83.5037C99.5845 83.7197 99.5905 83.8817 99.6025 83.9897H97.1365C97.1245 83.8937 97.1185 83.7797 97.1185 83.6477C97.1185 82.9997 97.2625 82.3637 97.5505 81.7397C97.8385 81.1037 98.3305 80.5697 99.0265 80.1377C99.7225 79.6937 100.635 79.4717 101.763 79.4717H102.033C102.897 79.4717 103.635 79.6517 104.247 80.0117C104.871 80.3717 105.339 80.8457 105.651 81.4337C105.963 82.0097 106.119 82.6277 106.119 83.2877C106.119 83.9957 105.981 84.6257 105.705 85.1777C105.441 85.7177 104.979 86.2637 104.319 86.8157C103.563 87.4517 102.651 88.1717 101.583 88.9757C101.463 89.0717 101.313 89.2037 101.133 89.3717C100.953 89.5397 100.863 89.6477 100.863 89.6957H106.155V91.9997H97.1005V91.4597Z" fill="#060C3C"/>
<rect x="58" y="143" width="130" height="20" rx="6" fill="#20A2A2"/>
<rect x="58" y="110" width="65" height="6" rx="3" fill="#B4B6C4"/>
<rect x="58" y="124" width="65" height="6" rx="3" fill="#B4B6C4"/>
<g filter="url(#filter1_d_514_4981)">
<rect x="109" y="14" width="50" height="50" rx="6" fill="white"/>
</g>
<path d="M143.037 31.0065C143.019 30.8752 142.905 30.8023 142.81 30.7944C142.716 30.7865 140.87 30.7583 140.87 30.7583C140.87 30.7583 139.327 29.2551 139.174 29.1022C139.022 28.9492 138.724 28.9954 138.608 29.03C138.607 29.0308 138.319 29.1202 137.833 29.271C137.752 29.007 137.632 28.6824 137.462 28.3563C136.913 27.3046 136.108 26.7485 135.135 26.747C135.134 26.747 135.133 26.747 135.132 26.747C135.064 26.747 134.997 26.7535 134.93 26.7593C134.901 26.7247 134.872 26.6908 134.842 26.6576C134.418 26.2032 133.875 25.9817 133.224 26.0012C131.969 26.0372 130.718 26.9468 129.704 28.5626C128.99 29.6994 128.447 31.1277 128.293 32.2335C126.851 32.6814 125.843 32.9944 125.821 33.0017C125.093 33.231 125.07 33.2534 124.975 33.9416C124.904 34.4616 123 49.2316 123 49.2316L138.96 52L145.878 50.2753C145.878 50.2753 143.055 31.1378 143.037 31.0065ZM137.034 29.5191C136.667 29.6331 136.249 29.7629 135.796 29.9036C135.786 29.2659 135.711 28.3787 135.414 27.6119C136.367 27.793 136.836 28.8742 137.034 29.5191ZM134.961 30.1632C134.124 30.4229 133.211 30.7064 132.296 30.9906C132.553 30.0017 133.042 29.0171 133.642 28.3715C133.865 28.1313 134.177 27.8636 134.546 27.7107C134.894 28.4378 134.969 29.4672 134.961 30.1632ZM133.25 26.8394C133.544 26.8329 133.793 26.8978 134.005 27.0377C133.665 27.2145 133.337 27.4684 133.03 27.7995C132.232 28.6578 131.621 29.9901 131.377 31.2755C130.617 31.5114 129.873 31.743 129.188 31.955C129.62 29.9317 131.311 26.8956 133.25 26.8394Z" fill="#95BF47"/>
<path d="M142.811 30.795C142.717 30.787 140.871 30.7589 140.871 30.7589C140.871 30.7589 139.328 29.2556 139.175 29.1027C139.118 29.0457 139.042 29.0162 138.961 29.0039L138.962 51.9991L145.878 50.2752C145.878 50.2752 143.056 31.1383 143.038 31.007C143.02 30.8757 142.905 30.8029 142.811 30.795Z" fill="#5E8E3E"/>
<path d="M135.127 34.3619L134.323 37.3763C134.323 37.3763 133.427 36.9673 132.365 37.0344C130.807 37.1333 130.79 38.1186 130.806 38.366C130.891 39.7142 134.428 40.0085 134.626 43.1664C134.782 45.6507 133.312 47.3501 131.194 47.4843C128.652 47.6452 127.252 46.1412 127.252 46.1412L127.791 43.843C127.791 43.843 129.2 44.9092 130.327 44.8378C131.064 44.7909 131.327 44.19 131.3 43.7651C131.19 42.0065 128.31 42.1104 128.128 39.2208C127.975 36.7892 129.567 34.3251 133.08 34.103C134.434 34.0157 135.127 34.3619 135.127 34.3619Z" fill="white"/>
<g filter="url(#filter2_d_514_4981)">
<rect x="123" y="74" width="36" height="36" rx="6" fill="white"/>
</g>
<g clip-path="url(#clip0_514_4981)">
<rect width="14" height="14" transform="translate(134 85)" fill="white"/>
<path d="M134 85H140.631V91.6527H134V85Z" fill="#F25022"/>
<path d="M141.323 85H147.954V91.6527H141.323V85Z" fill="#7FBA00"/>
<path d="M134 92.3477H140.631V99.0004H134V92.3477Z" fill="#00A4EF"/>
<path d="M141.323 92.3477H147.954V99.0004H141.323V92.3477Z" fill="#FFB900"/>
</g>
<g filter="url(#filter3_d_514_4981)">
<rect x="169" y="30" width="35" height="35" rx="6" fill="white"/>
</g>
<g clip-path="url(#clip1_514_4981)">
<path d="M184.632 48.4883C183.588 48.4883 182.741 49.335 182.741 50.379V55.1085C182.741 56.1525 183.588 56.9993 184.632 56.9993C185.676 56.9993 186.523 56.1525 186.523 55.1085V50.379C186.522 49.335 185.675 48.4883 184.632 48.4883Z" fill="#E91E63"/>
<path d="M178.015 50.3786C178.015 51.4233 178.862 52.2708 179.907 52.2708C180.952 52.2708 181.799 51.4233 181.799 50.3786V48.4863H179.908C179.908 48.4863 179.908 48.4863 179.907 48.4863C178.862 48.4863 178.015 49.3338 178.015 50.3786Z" fill="#E91E63"/>
<path d="M184.635 38.999C184.634 38.999 184.633 38.999 184.632 38.999C183.588 38.999 182.74 39.8465 182.74 40.8913C182.74 41.936 183.588 42.7835 184.632 42.7835H186.523V40.8913C186.523 40.8905 186.523 40.889 186.523 40.8875C186.522 39.8443 185.677 38.999 184.635 38.999Z" fill="#36C5F0"/>
<path d="M179.894 47.5277H184.633C185.677 47.5277 186.525 46.6802 186.525 45.6354C186.525 44.5907 185.677 43.7432 184.633 43.7432H179.894C178.849 43.7432 178.002 44.5907 178.002 45.6354C178.002 46.6802 178.849 47.5277 179.894 47.5277Z" fill="#36C5F0"/>
<path d="M194.093 43.7422C193.049 43.7422 192.204 44.5874 192.204 45.6307V45.6344V47.5267H194.095C195.14 47.5267 195.987 46.6792 195.987 45.6344C195.987 44.5897 195.14 43.7422 194.095 43.7422C194.094 43.7422 194.093 43.7422 194.093 43.7422Z" fill="#4CAF50"/>
<path d="M187.48 40.8917V45.6355C187.48 46.6795 188.327 47.5262 189.371 47.5262C190.415 47.5262 191.262 46.6795 191.262 45.6355V40.8917C191.262 39.8477 190.415 39.001 189.371 39.001C188.327 39.001 187.48 39.8477 187.48 40.8917Z" fill="#4CAF50"/>
<path d="M191.261 55.1066C191.261 54.0626 190.414 53.2158 189.37 53.2158H187.479V55.1081C187.48 56.1513 188.326 56.9973 189.37 56.9973C190.414 56.9973 191.261 56.1506 191.261 55.1066Z" fill="#FF9800"/>
<path d="M194.109 48.4863H189.371C188.326 48.4863 187.479 49.3338 187.479 50.3786C187.479 51.4233 188.326 52.2708 189.371 52.2708H194.109C195.154 52.2708 196.002 51.4233 196.002 50.3786C196.002 49.3338 195.154 48.4863 194.109 48.4863Z" fill="#FF9800"/>
</g>
<g filter="url(#filter4_d_514_4981)">
<rect x="171" y="77" width="50" height="50" rx="6" fill="white"/>
</g>
<path d="M197.508 90.0156L197.499 95.3195L197.489 100.623L197.053 99.3921L197.052 99.3898L196.488 111.198C197.043 112.763 197.34 113.599 197.343 113.602C197.347 113.607 197.663 113.626 198.045 113.645C199.202 113.702 200.635 113.825 201.723 113.96C201.974 113.992 202.191 114.008 202.204 113.996C202.217 113.984 202.224 108.584 202.22 101.995L202.212 90.0156H197.508Z" fill="#B1060F"/>
<path d="M189 90V101.992C189 108.587 189.006 113.99 189.014 113.998C189.022 114.006 189.431 113.967 189.922 113.912C190.413 113.857 191.092 113.789 191.431 113.76C191.95 113.716 193.501 113.616 193.68 113.615C193.733 113.615 193.736 113.346 193.743 108.536L193.751 103.457L194.127 104.519L194.259 104.894L194.823 93.089L194.629 92.5415C194.34 91.7232 194.05 90.905 193.761 90.0868L193.73 90H189Z" fill="#B1060F"/>
<path d="M189 90V96.7313L193.742 109.31C193.742 109.021 193.743 108.866 193.743 108.536L193.751 103.457L194.127 104.519C196.215 110.428 197.337 113.596 197.343 113.603C197.348 113.607 197.664 113.626 198.045 113.645C199.202 113.702 200.636 113.825 201.723 113.961C201.975 113.992 202.192 114.008 202.205 113.996C202.214 113.988 202.219 111.34 202.221 107.605L197.501 94.0357L197.499 95.3197L197.49 100.624L197.053 99.3924C196.627 98.1894 196.342 97.3848 194.629 92.5415C194.34 91.7232 194.05 90.905 193.761 90.0868L193.73 90H189Z" fill="url(#paint0_radial_514_4981)"/>
<path d="M189.001 90L193.752 103.463V103.457L194.127 104.519C196.216 110.428 197.338 113.596 197.344 113.603C197.349 113.607 197.665 113.626 198.046 113.645C199.203 113.702 200.637 113.825 201.724 113.961C201.974 113.992 202.19 114.008 202.205 113.996L197.49 100.621V100.624L197.054 99.3924C196.628 98.1894 196.343 97.3848 194.63 92.5415C194.169 91.2391 193.778 90.1347 193.761 90.0868L193.73 90H189.001Z" fill="#E50914"/>
<path d="M197.508 90.0156L197.499 95.3195L197.489 100.623L197.053 99.3921L197.052 99.3898L196.488 111.198C197.043 112.763 197.34 113.599 197.343 113.602C197.347 113.607 197.663 113.626 198.045 113.645C199.202 113.702 200.635 113.825 201.723 113.96C201.974 113.992 202.191 114.008 202.204 113.996C202.217 113.984 202.224 108.584 202.22 101.995L202.212 90.0156H197.508Z" fill="#B1060F"/>
<path d="M189 90V101.992C189 108.587 189.006 113.99 189.014 113.998C189.022 114.006 189.431 113.967 189.922 113.912C190.413 113.857 191.092 113.789 191.431 113.76C191.95 113.716 193.501 113.616 193.68 113.615C193.733 113.615 193.736 113.346 193.743 108.536L193.751 103.457L194.127 104.519L194.259 104.894L194.823 93.089L194.629 92.5415C194.34 91.7232 194.05 90.905 193.761 90.0868L193.73 90H189Z" fill="#B1060F"/>
<path d="M189 90V96.7313L193.742 109.31C193.742 109.021 193.743 108.866 193.743 108.536L193.751 103.457L194.127 104.519C196.215 110.428 197.337 113.596 197.343 113.603C197.348 113.607 197.664 113.626 198.045 113.645C199.202 113.702 200.636 113.825 201.723 113.961C201.975 113.992 202.192 114.008 202.205 113.996C202.214 113.988 202.219 111.34 202.221 107.605L197.501 94.0357L197.499 95.3197L197.49 100.624L197.053 99.3924C196.627 98.1894 196.342 97.3848 194.629 92.5415C194.34 91.7232 194.05 90.905 193.761 90.0868L193.73 90H189Z" fill="url(#paint1_radial_514_4981)"/>
<path d="M189.001 90L193.752 103.463V103.457L194.127 104.519C196.216 110.428 197.338 113.596 197.344 113.603C197.349 113.607 197.665 113.626 198.046 113.645C199.203 113.702 200.637 113.825 201.724 113.961C201.974 113.992 202.19 114.008 202.205 113.996L197.49 100.621V100.624L197.054 99.3924C196.628 98.1894 196.343 97.3848 194.63 92.5415C194.169 91.2391 193.778 90.1347 193.761 90.0868L193.73 90H189.001Z" fill="#E50914"/>
<defs>
<filter id="filter0_d_514_4981" x="0" y="25" width="246" height="204" filterUnits="userSpaceOnUse" color-interpolation-filters="sRGB">
<feFlood flood-opacity="0" result="BackgroundImageFix"/>
<feColorMatrix in="SourceAlpha" type="matrix" values="0 0 0 0 0 0 0 0 0 0 0 0 0 0 0 0 0 0 127 0" result="hardAlpha"/>
<feMorphology radius="2" operator="erode" in="SourceAlpha" result="effect1_dropShadow_514_4981"/>
<feOffset dy="8"/>
<feGaussianBlur stdDeviation="20"/>
<feColorMatrix type="matrix" values="0 0 0 0 0.0235294 0 0 0 0 0.0470588 0 0 0 0 0.231373 0 0 0 0.08 0"/>
<feBlend mode="normal" in2="BackgroundImageFix" result="effect1_dropShadow_514_4981"/>
<feBlend mode="normal" in="SourceGraphic" in2="effect1_dropShadow_514_4981" result="shape"/>
</filter>
<filter id="filter1_d_514_4981" x="89" y="0" width="90" height="90" filterUnits="userSpaceOnUse" color-interpolation-filters="sRGB">
<feFlood flood-opacity="0" result="BackgroundImageFix"/>
<feColorMatrix in="SourceAlpha" type="matrix" values="0 0 0 0 0 0 0 0 0 0 0 0 0 0 0 0 0 0 127 0" result="hardAlpha"/>
<feOffset dy="6"/>
<feGaussianBlur stdDeviation="10"/>
<feColorMatrix type="matrix" values="0 0 0 0 0.11 0 0 0 0 0.14137 0 0 0 0 0.4125 0 0 0 0.05 0"/>
<feBlend mode="normal" in2="BackgroundImageFix" result="effect1_dropShadow_514_4981"/>
<feBlend mode="normal" in="SourceGraphic" in2="effect1_dropShadow_514_4981" result="shape"/>
</filter>
<filter id="filter2_d_514_4981" x="103" y="60" width="76" height="76" filterUnits="userSpaceOnUse" color-interpolation-filters="sRGB">
<feFlood flood-opacity="0" result="BackgroundImageFix"/>
<feColorMatrix in="SourceAlpha" type="matrix" values="0 0 0 0 0 0 0 0 0 0 0 0 0 0 0 0 0 0 127 0" result="hardAlpha"/>
<feOffset dy="6"/>
<feGaussianBlur stdDeviation="10"/>
<feColorMatrix type="matrix" values="0 0 0 0 0.11 0 0 0 0 0.14137 0 0 0 0 0.4125 0 0 0 0.05 0"/>
<feBlend mode="normal" in2="BackgroundImageFix" result="effect1_dropShadow_514_4981"/>
<feBlend mode="normal" in="SourceGraphic" in2="effect1_dropShadow_514_4981" result="shape"/>
</filter>
<filter id="filter3_d_514_4981" x="149" y="16" width="75" height="75" filterUnits="userSpaceOnUse" color-interpolation-filters="sRGB">
<feFlood flood-opacity="0" result="BackgroundImageFix"/>
<feColorMatrix in="SourceAlpha" type="matrix" values="0 0 0 0 0 0 0 0 0 0 0 0 0 0 0 0 0 0 127 0" result="hardAlpha"/>
<feOffset dy="6"/>
<feGaussianBlur stdDeviation="10"/>
<feColorMatrix type="matrix" values="0 0 0 0 0.11 0 0 0 0 0.14137 0 0 0 0 0.4125 0 0 0 0.05 0"/>
<feBlend mode="normal" in2="BackgroundImageFix" result="effect1_dropShadow_514_4981"/>
<feBlend mode="normal" in="SourceGraphic" in2="effect1_dropShadow_514_4981" result="shape"/>
</filter>
<filter id="filter4_d_514_4981" x="151" y="63" width="90" height="90" filterUnits="userSpaceOnUse" color-interpolation-filters="sRGB">
<feFlood flood-opacity="0" result="BackgroundImageFix"/>
<feColorMatrix in="SourceAlpha" type="matrix" values="0 0 0 0 0 0 0 0 0 0 0 0 0 0 0 0 0 0 127 0" result="hardAlpha"/>
<feOffset dy="6"/>
<feGaussianBlur stdDeviation="10"/>
<feColorMatrix type="matrix" values="0 0 0 0 0.11 0 0 0 0 0.14137 0 0 0 0 0.4125 0 0 0 0.05 0"/>
<feBlend mode="normal" in2="BackgroundImageFix" result="effect1_dropShadow_514_4981"/>
<feBlend mode="normal" in="SourceGraphic" in2="effect1_dropShadow_514_4981" result="shape"/>
</filter>
<radialGradient id="paint0_radial_514_4981" cx="0" cy="0" r="1" gradientUnits="userSpaceOnUse" gradientTransform="translate(195.391 94.0086) scale(9.31259 9.31268)">
<stop/>
<stop offset="1" stop-opacity="0"/>
</radialGradient>
<radialGradient id="paint1_radial_514_4981" cx="0" cy="0" r="1" gradientUnits="userSpaceOnUse" gradientTransform="translate(195.391 94.0086) scale(9.31259 9.31268)">
<stop/>
<stop offset="1" stop-opacity="0"/>
</radialGradient>
<clipPath id="clip0_514_4981">
<rect width="14" height="14" fill="white" transform="translate(134 85)"/>
</clipPath>
<clipPath id="clip1_514_4981">
<rect width="18" height="18" fill="white" transform="translate(178 39)"/>
</clipPath>
</defs>
</svg>
