<?xml version="1.0" standalone="no"?>
<!DOCTYPE svg PUBLIC "-//W3C//DTD SVG 20010904//EN"
 "http://www.w3.org/TR/2001/REC-SVG-20010904/DTD/svg10.dtd">
<svg version="1.0" xmlns="http://www.w3.org/2000/svg"
 width="377.000000pt" height="123.000000pt" viewBox="0 0 377.000000 123.000000"
 preserveAspectRatio="xMidYMid meet">
<metadata>
Created by potrace 1.16, written by Peter Selinger 2001-2019
</metadata>
<g transform="translate(0.000000,123.000000) scale(0.100000,-0.100000)"
fill="#000000" stroke="none">
<path d="M680 1149 c0 -10 -84 -561 -95 -626 l-6 -33 71 0 c38 0 70 2 70 5 0
2 23 151 50 331 28 180 50 328 50 330 0 2 -31 4 -70 4 -43 0 -70 -4 -70 -11z"/>
<path d="M120 1127 c0 -10 -91 -595 -95 -614 -5 -22 -3 -23 68 -23 l74 0 18
130 19 130 137 0 136 0 7 38 c12 77 21 72 -127 72 l-133 0 10 78 11 77 154 5
154 5 13 45 c8 25 14 48 14 53 0 4 -103 7 -230 7 -126 0 -230 -2 -230 -3z"/>
<path d="M1045 955 c-97 -36 -163 -131 -172 -248 -7 -83 9 -128 59 -171 110
-95 322 -65 405 58 40 58 53 103 53 181 0 75 -22 119 -79 160 -38 26 -50 29
-134 32 -63 2 -105 -2 -132 -12z m182 -101 c25 -25 26 -29 20 -105 -10 -123
-43 -169 -126 -177 -46 -4 -53 -2 -82 27 -31 32 -31 33 -24 104 12 129 49 177
137 177 39 0 54 -5 75 -26z"/>
<path d="M1486 923 c4 -21 24 -126 44 -233 l36 -195 77 -3 77 -3 65 137 c36
75 67 135 70 133 2 -3 14 -64 26 -137 l22 -132 77 0 77 0 111 229 c62 127 112
232 112 235 0 3 -29 6 -66 6 -64 0 -65 -1 -79 -32 -7 -18 -39 -87 -71 -153
-66 -138 -58 -144 -89 68 l-18 117 -71 0 -71 0 -69 -150 c-38 -82 -72 -148
-74 -145 -4 4 -52 267 -52 288 0 4 -32 7 -70 7 l-71 0 7 -37z"/>
</g>
</svg>
