<svg width="130" height="30" viewBox="0 0 130 30" fill="none" xmlns="http://www.w3.org/2000/svg">
<path d="M14.1944 27.0091C12.6415 27.2786 11.0613 27.3594 9.42669 27.5746L4.44081 13.1417V28.1941C2.88792 28.3556 1.47123 28.571 0 28.7864V1.21289H4.1413L9.80806 16.8579V1.21289H14.1944V27.0091ZM22.7765 11.3106C24.4658 11.3106 27.054 11.2298 28.6069 11.2298V15.5381C26.6725 15.5381 24.4113 15.5381 22.7765 15.6189V22.0277C25.3376 21.8662 27.8986 21.6506 30.4867 21.5698V25.7163L18.4173 26.659V1.21289H30.4867V5.52126H22.7765V11.3106ZM46.6973 5.52136H42.1747V25.3398C40.7035 25.3398 39.2322 25.3398 37.8158 25.3935V5.52136H33.2932V1.21289H46.6975L46.6973 5.52136ZM53.7808 11.0145H59.7475V15.3228H53.7808V25.0975H49.5031V1.21289H61.6818V5.52126H53.7808V11.0145ZM68.7654 21.3276C71.2447 21.3813 73.7511 21.5701 76.176 21.7045V25.959C72.2801 25.7165 68.384 25.4745 64.4063 25.3935V1.21289H68.7654V21.3276ZM79.854 26.2553C81.2434 26.3362 82.7147 26.417 84.1313 26.5783V1.21289H79.854V26.2553ZM103.23 1.21289L97.6992 14.3265L103.23 28.7864C101.595 28.571 99.9605 28.2748 98.3258 28.0055L95.1928 20.0352L92.0055 27.3594C90.4249 27.0899 88.8993 27.0091 87.3194 26.7937L92.9317 14.1648L87.8641 1.21289H92.5499L95.4106 8.45634L98.4622 1.21289L103.23 1.21289Z" fill="#FF1B0C"/>
</svg>
